<?xml version="1.0" standalone="no"?><!DOCTYPE svg PUBLIC "-//W3C//DTD SVG 1.1//EN" "http://www.w3.org/Graphics/SVG/1.1/DTD/svg11.dtd"><svg xmlns:xlink="http://www.w3.org/1999/xlink" version="1.1" class="highcharts-root" style="font-family:&quot;lucida grande&quot;, &quot;lucida sans unicode&quot;, arial, helvetica, sans-serif;font-size:12px;" xmlns="http://www.w3.org/2000/svg" width="600" height="400"><desc>Created with Highcharts 5.0.7</desc><defs><clipPath id="highcharts-socld7z-12"><rect x="0" y="0" width="370" height="287" fill="none"></rect></clipPath></defs><rect fill="#ffffff" class="highcharts-background" x="0" y="0" width="600" height="400" rx="0" ry="0"></rect><rect fill="none" class="highcharts-plot-background" x="77" y="53" width="370" height="287"></rect><g class="highcharts-plot-lines-0"><path fill="none" stroke="#808080" stroke-width="1" visibility="hidden"></path></g><g class="highcharts-grid highcharts-xaxis-grid "><path fill="none" class="highcharts-grid-line" d="M 150.5 53 L 150.5 340" opacity="1"></path><path fill="none" class="highcharts-grid-line" d="M 224.5 53 L 224.5 340" opacity="1"></path><path fill="none" class="highcharts-grid-line" d="M 298.5 53 L 298.5 340" opacity="1"></path><path fill="none" class="highcharts-grid-line" d="M 372.5 53 L 372.5 340" opacity="1"></path><path fill="none" class="highcharts-grid-line" d="M 446.5 53 L 446.5 340" opacity="1"></path><path fill="none" class="highcharts-grid-line" d="M 76.5 53 L 76.5 340" opacity="1"></path></g><g class="highcharts-grid highcharts-yaxis-grid "><path fill="none" stroke="#e6e6e6" stroke-width="1" class="highcharts-grid-line" d="M 77 340.5 L 447 340.5" opacity="1"></path><path fill="none" stroke="#e6e6e6" stroke-width="1" class="highcharts-grid-line" d="M 77 283.5 L 447 283.5" opacity="1"></path><path fill="none" stroke="#e6e6e6" stroke-width="1" class="highcharts-grid-line" d="M 77 225.5 L 447 225.5" opacity="1"></path><path fill="none" stroke="#e6e6e6" stroke-width="1" class="highcharts-grid-line" d="M 77 168.5 L 447 168.5" opacity="1"></path><path fill="none" stroke="#e6e6e6" stroke-width="1" class="highcharts-grid-line" d="M 77 110.5 L 447 110.5" opacity="1"></path><path fill="none" stroke="#e6e6e6" stroke-width="1" class="highcharts-grid-line" d="M 77 52.5 L 447 52.5" opacity="1"></path></g><rect fill="none" class="highcharts-plot-border" x="77" y="53" width="370" height="287"></rect><g class="highcharts-axis highcharts-xaxis "><path fill="none" class="highcharts-tick" stroke="#ccd6eb" stroke-width="1" d="M 150.5 340 L 150.5 350" opacity="1"></path><path fill="none" class="highcharts-tick" stroke="#ccd6eb" stroke-width="1" d="M 224.5 340 L 224.5 350" opacity="1"></path><path fill="none" class="highcharts-tick" stroke="#ccd6eb" stroke-width="1" d="M 298.5 340 L 298.5 350" opacity="1"></path><path fill="none" class="highcharts-tick" stroke="#ccd6eb" stroke-width="1" d="M 372.5 340 L 372.5 350" opacity="1"></path><path fill="none" class="highcharts-tick" stroke="#ccd6eb" stroke-width="1" d="M 447.5 340 L 447.5 350" opacity="1"></path><path fill="none" class="highcharts-tick" stroke="#ccd6eb" stroke-width="1" d="M 76.5 340 L 76.5 350" opacity="1"></path><text x="262" text-anchor="middle" transform="translate(0,0)" class="highcharts-axis-title" style="color:#666666;fill:#666666;" y="379"><tspan>Size of array (in tens of million)</tspan></text><path fill="none" class="highcharts-axis-line" stroke="#ccd6eb" stroke-width="1" d="M 77 340.5 L 447 340.5"></path></g><g class="highcharts-axis highcharts-yaxis "><text x="27.65625" text-anchor="middle" transform="translate(0,0) rotate(270 27.65625 196.5)" class="highcharts-axis-title" style="color:#666666;fill:#666666;" y="196.5"><tspan>Execution Time (ms)</tspan></text><path fill="none" class="highcharts-axis-line" d="M 77 53 L 77 340"></path></g><g class="highcharts-series-group"><g class="highcharts-series highcharts-series-0 highcharts-line-series highcharts-color-0 " transform="translate(77,53) scale(1 1)" clip-path="url(#highcharts-socld7z-12)"><path fill="none" d="M 37 252.56 L 111 229.6 L 185 206.64 L 259 114.79999999999998 L 333 45.91999999999999" class="highcharts-graph" stroke="#7cb5ec" stroke-width="2" stroke-linejoin="round" stroke-linecap="round"></path></g><g class="highcharts-markers highcharts-series-0 highcharts-line-series highcharts-color-0 " transform="translate(77,53) scale(1 1)" clip-path="none"><path fill="#7cb5ec" d="M 41 253 A 4 4 0 1 1 40.99999800000017 252.99600000066667 Z" class="highcharts-point highcharts-color-0"></path><path fill="#7cb5ec" d="M 115 230 A 4 4 0 1 1 114.99999800000016 229.99600000066667 Z" class="highcharts-point highcharts-color-0"></path><path fill="#7cb5ec" d="M 189 207 A 4 4 0 1 1 188.99999800000018 206.99600000066667 Z" class="highcharts-point highcharts-color-0"></path><path fill="#7cb5ec" d="M 263 115 A 4 4 0 1 1 262.9999980000002 114.99600000066667 Z" class="highcharts-point highcharts-color-0"></path><path fill="#7cb5ec" d="M 337 46 A 4 4 0 1 1 336.9999980000002 45.99600000066666 Z" class="highcharts-point highcharts-color-0"></path></g></g><text x="280" text-anchor="middle" class="highcharts-title" style="color:#333333;font-size:18px;fill:#333333;" y="24"><tspan>Execution Time to find the minimum of an array</tspan></text><g class="highcharts-legend" transform="translate(459,183)"><rect fill="none" class="highcharts-legend-box" rx="0" ry="0" x="0" y="0" width="130" height="29" visibility="visible"></rect><g><g><g class="highcharts-legend-item highcharts-line-series highcharts-color-0 highcharts-series-0" transform="translate(8,3)"><path fill="none" d="M 0 11 L 16 11" class="highcharts-graph" stroke="#7cb5ec" stroke-width="2"></path><path fill="#7cb5ec" d="M 12 11 A 4 4 0 1 1 11.999998000000167 10.996000000666664 Z" class="highcharts-point"></path><text x="21" style="color:#333333;font-size:12px;font-weight:bold;cursor:pointer;fill:#333333;" text-anchor="start" y="15"><tspan>Execution Time</tspan></text></g></g></g></g><g class="highcharts-axis-labels highcharts-xaxis-labels "><text x="114" style="color:#666666;cursor:default;font-size:11px;fill:#666666;" text-anchor="middle" transform="translate(0,0)" y="359" opacity="1"><tspan>1</tspan></text><text x="188" style="color:#666666;cursor:default;font-size:11px;fill:#666666;" text-anchor="middle" transform="translate(0,0)" y="359" opacity="1"><tspan>2</tspan></text><text x="262" style="color:#666666;cursor:default;font-size:11px;fill:#666666;" text-anchor="middle" transform="translate(0,0)" y="359" opacity="1"><tspan>3</tspan></text><text x="336" style="color:#666666;cursor:default;font-size:11px;fill:#666666;" text-anchor="middle" transform="translate(0,0)" y="359" opacity="1"><tspan>4</tspan></text><text x="410" style="color:#666666;cursor:default;font-size:11px;fill:#666666;" text-anchor="middle" transform="translate(0,0)" y="359" opacity="1"><tspan>5</tspan></text></g><g class="highcharts-axis-labels highcharts-yaxis-labels "><text x="62" style="color:#666666;cursor:default;font-size:11px;fill:#666666;" text-anchor="end" transform="translate(0,0)" y="344" opacity="1"><tspan>7.5</tspan></text><text x="62" style="color:#666666;cursor:default;font-size:11px;fill:#666666;" text-anchor="end" transform="translate(0,0)" y="287" opacity="1"><tspan>10</tspan></text><text x="62" style="color:#666666;cursor:default;font-size:11px;fill:#666666;" text-anchor="end" transform="translate(0,0)" y="229" opacity="1"><tspan>12.5</tspan></text><text x="62" style="color:#666666;cursor:default;font-size:11px;fill:#666666;" text-anchor="end" transform="translate(0,0)" y="172" opacity="1"><tspan>15</tspan></text><text x="62" style="color:#666666;cursor:default;font-size:11px;fill:#666666;" text-anchor="end" transform="translate(0,0)" y="114" opacity="1"><tspan>17.5</tspan></text><text x="62" style="color:#666666;cursor:default;font-size:11px;fill:#666666;" text-anchor="end" transform="translate(0,0)" y="57" opacity="1"><tspan>20</tspan></text></g><text x="590" class="highcharts-credits" text-anchor="end" style="cursor:pointer;color:#999999;font-size:9px;fill:#999999;" y="395">Highcharts.com</text></svg>