<?xml version="1.0" standalone="no"?><!DOCTYPE svg PUBLIC "-//W3C//DTD SVG 1.1//EN" "http://www.w3.org/Graphics/SVG/1.1/DTD/svg11.dtd"><svg xmlns:xlink="http://www.w3.org/1999/xlink" version="1.1" class="highcharts-root" style="font-family:&quot;lucida grande&quot;, &quot;lucida sans unicode&quot;, arial, helvetica, sans-serif;font-size:12px;" xmlns="http://www.w3.org/2000/svg" width="600" height="400"><desc>Created with Highcharts 5.0.7</desc><defs><clipPath id="highcharts-orwdzu0-12"><rect x="0" y="0" width="380" height="287" fill="none"></rect></clipPath></defs><rect fill="#ffffff" class="highcharts-background" x="0" y="0" width="600" height="400" rx="0" ry="0"></rect><rect fill="none" class="highcharts-plot-background" x="67" y="53" width="380" height="287"></rect><g class="highcharts-plot-lines-0"><path fill="none" stroke="#808080" stroke-width="1" d="M 67 340.5 L 447 340.5"></path></g><g class="highcharts-grid highcharts-xaxis-grid "><path fill="none" class="highcharts-grid-line" d="M 142.5 53 L 142.5 340" opacity="1"></path><path fill="none" class="highcharts-grid-line" d="M 218.5 53 L 218.5 340" opacity="1"></path><path fill="none" class="highcharts-grid-line" d="M 294.5 53 L 294.5 340" opacity="1"></path><path fill="none" class="highcharts-grid-line" d="M 370.5 53 L 370.5 340" opacity="1"></path><path fill="none" class="highcharts-grid-line" d="M 446.5 53 L 446.5 340" opacity="1"></path><path fill="none" class="highcharts-grid-line" d="M 66.5 53 L 66.5 340" opacity="1"></path></g><g class="highcharts-grid highcharts-yaxis-grid "><path fill="none" stroke="#e6e6e6" stroke-width="1" class="highcharts-grid-line" d="M 67 340.5 L 447 340.5" opacity="1"></path><path fill="none" stroke="#e6e6e6" stroke-width="1" class="highcharts-grid-line" d="M 67 283.5 L 447 283.5" opacity="1"></path><path fill="none" stroke="#e6e6e6" stroke-width="1" class="highcharts-grid-line" d="M 67 225.5 L 447 225.5" opacity="1"></path><path fill="none" stroke="#e6e6e6" stroke-width="1" class="highcharts-grid-line" d="M 67 168.5 L 447 168.5" opacity="1"></path><path fill="none" stroke="#e6e6e6" stroke-width="1" class="highcharts-grid-line" d="M 67 110.5 L 447 110.5" opacity="1"></path><path fill="none" stroke="#e6e6e6" stroke-width="1" class="highcharts-grid-line" d="M 67 52.5 L 447 52.5" opacity="1"></path></g><rect fill="none" class="highcharts-plot-border" x="67" y="53" width="380" height="287"></rect><g class="highcharts-axis highcharts-xaxis "><path fill="none" class="highcharts-tick" stroke="#ccd6eb" stroke-width="1" d="M 142.5 340 L 142.5 350" opacity="1"></path><path fill="none" class="highcharts-tick" stroke="#ccd6eb" stroke-width="1" d="M 218.5 340 L 218.5 350" opacity="1"></path><path fill="none" class="highcharts-tick" stroke="#ccd6eb" stroke-width="1" d="M 294.5 340 L 294.5 350" opacity="1"></path><path fill="none" class="highcharts-tick" stroke="#ccd6eb" stroke-width="1" d="M 370.5 340 L 370.5 350" opacity="1"></path><path fill="none" class="highcharts-tick" stroke="#ccd6eb" stroke-width="1" d="M 447.5 340 L 447.5 350" opacity="1"></path><path fill="none" class="highcharts-tick" stroke="#ccd6eb" stroke-width="1" d="M 66.5 340 L 66.5 350" opacity="1"></path><text x="257" text-anchor="middle" transform="translate(0,0)" class="highcharts-axis-title" style="color:#666666;fill:#666666;" y="379"><tspan>Size of array (in tens of thousands)</tspan></text><path fill="none" class="highcharts-axis-line" stroke="#ccd6eb" stroke-width="1" d="M 67 340.5 L 447 340.5"></path></g><g class="highcharts-axis highcharts-yaxis "><text x="28.046875" text-anchor="middle" transform="translate(0,0) rotate(270 28.046875 196.5)" class="highcharts-axis-title" style="color:#666666;fill:#666666;" y="196.5"><tspan>Execution Time (ms)</tspan></text><path fill="none" class="highcharts-axis-line" d="M 67 53 L 67 340"></path></g><g class="highcharts-series-group"><g class="highcharts-series highcharts-series-0 highcharts-line-series highcharts-color-0 " transform="translate(67,53) scale(1 1)" clip-path="url(#highcharts-orwdzu0-12)"><path fill="none" d="M 38 277.0698 L 114 248.3124 L 190 169.50220000000002 L 266 130.7572 L 342 41.1558" class="highcharts-graph" stroke="#7cb5ec" stroke-width="2" stroke-linejoin="round" stroke-linecap="round"></path></g><g class="highcharts-markers highcharts-series-0 highcharts-line-series highcharts-color-0 " transform="translate(67,53) scale(1 1)" clip-path="none"><path fill="#7cb5ec" d="M 42 277 A 4 4 0 1 1 41.99999800000017 276.99600000066664 Z" class="highcharts-point highcharts-color-0"></path><path fill="#7cb5ec" d="M 118 248 A 4 4 0 1 1 117.99999800000016 247.99600000066667 Z" class="highcharts-point highcharts-color-0"></path><path fill="#7cb5ec" d="M 194 170 A 4 4 0 1 1 193.99999800000018 169.99600000066667 Z" class="highcharts-point highcharts-color-0"></path><path fill="#7cb5ec" d="M 270 131 A 4 4 0 1 1 269.9999980000002 130.99600000066667 Z" class="highcharts-point highcharts-color-0"></path><path fill="#7cb5ec" d="M 346 41 A 4 4 0 1 1 345.9999980000002 40.99600000066666 Z" class="highcharts-point highcharts-color-0"></path></g></g><text x="280" text-anchor="middle" class="highcharts-title" style="color:#333333;font-size:18px;fill:#333333;" y="24"><tspan>Execution Time to sort an array by selection</tspan></text><g class="highcharts-legend" transform="translate(459,183)"><rect fill="none" class="highcharts-legend-box" rx="0" ry="0" x="0" y="0" width="130" height="29" visibility="visible"></rect><g><g><g class="highcharts-legend-item highcharts-line-series highcharts-color-0 highcharts-series-0" transform="translate(8,3)"><path fill="none" d="M 0 11 L 16 11" class="highcharts-graph" stroke="#7cb5ec" stroke-width="2"></path><path fill="#7cb5ec" d="M 12 11 A 4 4 0 1 1 11.999998000000167 10.996000000666664 Z" class="highcharts-point"></path><text x="21" style="color:#333333;font-size:12px;font-weight:bold;cursor:pointer;fill:#333333;" text-anchor="start" y="15"><tspan>Execution Time</tspan></text></g></g></g></g><g class="highcharts-axis-labels highcharts-xaxis-labels "><text x="105" style="color:#666666;cursor:default;font-size:11px;fill:#666666;" text-anchor="middle" transform="translate(0,0)" y="359" opacity="1"><tspan>1</tspan></text><text x="181" style="color:#666666;cursor:default;font-size:11px;fill:#666666;" text-anchor="middle" transform="translate(0,0)" y="359" opacity="1"><tspan>2</tspan></text><text x="257" style="color:#666666;cursor:default;font-size:11px;fill:#666666;" text-anchor="middle" transform="translate(0,0)" y="359" opacity="1"><tspan>3</tspan></text><text x="333" style="color:#666666;cursor:default;font-size:11px;fill:#666666;" text-anchor="middle" transform="translate(0,0)" y="359" opacity="1"><tspan>4</tspan></text><text x="409" style="color:#666666;cursor:default;font-size:11px;fill:#666666;" text-anchor="middle" transform="translate(0,0)" y="359" opacity="1"><tspan>5</tspan></text></g><g class="highcharts-axis-labels highcharts-yaxis-labels "><text x="52" style="color:#666666;cursor:default;font-size:11px;fill:#666666;" text-anchor="end" transform="translate(0,0)" y="344" opacity="1"><tspan>0</tspan></text><text x="52" style="color:#666666;cursor:default;font-size:11px;fill:#666666;" text-anchor="end" transform="translate(0,0)" y="287" opacity="1"><tspan>1k</tspan></text><text x="52" style="color:#666666;cursor:default;font-size:11px;fill:#666666;" text-anchor="end" transform="translate(0,0)" y="229" opacity="1"><tspan>2k</tspan></text><text x="52" style="color:#666666;cursor:default;font-size:11px;fill:#666666;" text-anchor="end" transform="translate(0,0)" y="172" opacity="1"><tspan>3k</tspan></text><text x="52" style="color:#666666;cursor:default;font-size:11px;fill:#666666;" text-anchor="end" transform="translate(0,0)" y="114" opacity="1"><tspan>4k</tspan></text><text x="52" style="color:#666666;cursor:default;font-size:11px;fill:#666666;" text-anchor="end" transform="translate(0,0)" y="57" opacity="1"><tspan>5k</tspan></text></g><text x="590" class="highcharts-credits" text-anchor="end" style="cursor:pointer;color:#999999;font-size:9px;fill:#999999;" y="395">Highcharts.com</text></svg>