<?xml version="1.0" standalone="no"?><!DOCTYPE svg PUBLIC "-//W3C//DTD SVG 1.1//EN" "http://www.w3.org/Graphics/SVG/1.1/DTD/svg11.dtd"><svg xmlns:xlink="http://www.w3.org/1999/xlink" version="1.1" class="highcharts-root" style="font-family:&quot;lucida grande&quot;, &quot;lucida sans unicode&quot;, arial, helvetica, sans-serif;font-size:12px;" xmlns="http://www.w3.org/2000/svg" width="600" height="400"><desc>Created with Highcharts 5.0.7</desc><defs><clipPath id="highcharts-tg9bcdd-12"><rect x="0" y="0" width="366" height="287" fill="none"></rect></clipPath></defs><rect fill="#ffffff" class="highcharts-background" x="0" y="0" width="600" height="400" rx="0" ry="0"></rect><rect fill="none" class="highcharts-plot-background" x="81" y="53" width="366" height="287"></rect><g class="highcharts-plot-lines-0"><path fill="none" stroke="#808080" stroke-width="1" d="M 81 340.5 L 447 340.5"></path></g><g class="highcharts-grid highcharts-xaxis-grid "><path fill="none" class="highcharts-grid-line" d="M 153.5 53 L 153.5 340" opacity="1"></path><path fill="none" class="highcharts-grid-line" d="M 226.5 53 L 226.5 340" opacity="1"></path><path fill="none" class="highcharts-grid-line" d="M 300.5 53 L 300.5 340" opacity="1"></path><path fill="none" class="highcharts-grid-line" d="M 373.5 53 L 373.5 340" opacity="1"></path><path fill="none" class="highcharts-grid-line" d="M 446.5 53 L 446.5 340" opacity="1"></path><path fill="none" class="highcharts-grid-line" d="M 80.5 53 L 80.5 340" opacity="1"></path></g><g class="highcharts-grid highcharts-yaxis-grid "><path fill="none" stroke="#e6e6e6" stroke-width="1" class="highcharts-grid-line" d="M 81 340.5 L 447 340.5" opacity="1"></path><path fill="none" stroke="#e6e6e6" stroke-width="1" class="highcharts-grid-line" d="M 81 283.5 L 447 283.5" opacity="1"></path><path fill="none" stroke="#e6e6e6" stroke-width="1" class="highcharts-grid-line" d="M 81 225.5 L 447 225.5" opacity="1"></path><path fill="none" stroke="#e6e6e6" stroke-width="1" class="highcharts-grid-line" d="M 81 168.5 L 447 168.5" opacity="1"></path><path fill="none" stroke="#e6e6e6" stroke-width="1" class="highcharts-grid-line" d="M 81 110.5 L 447 110.5" opacity="1"></path><path fill="none" stroke="#e6e6e6" stroke-width="1" class="highcharts-grid-line" d="M 81 52.5 L 447 52.5" opacity="1"></path></g><rect fill="none" class="highcharts-plot-border" x="81" y="53" width="366" height="287"></rect><g class="highcharts-axis highcharts-xaxis "><path fill="none" class="highcharts-tick" stroke="#ccd6eb" stroke-width="1" d="M 153.5 340 L 153.5 350" opacity="1"></path><path fill="none" class="highcharts-tick" stroke="#ccd6eb" stroke-width="1" d="M 226.5 340 L 226.5 350" opacity="1"></path><path fill="none" class="highcharts-tick" stroke="#ccd6eb" stroke-width="1" d="M 300.5 340 L 300.5 350" opacity="1"></path><path fill="none" class="highcharts-tick" stroke="#ccd6eb" stroke-width="1" d="M 373.5 340 L 373.5 350" opacity="1"></path><path fill="none" class="highcharts-tick" stroke="#ccd6eb" stroke-width="1" d="M 446.5 340 L 446.5 350" opacity="1"></path><path fill="none" class="highcharts-tick" stroke="#ccd6eb" stroke-width="1" d="M 80.5 340 L 80.5 350" opacity="1"></path><text x="264" text-anchor="middle" transform="translate(0,0)" class="highcharts-axis-title" style="color:#666666;fill:#666666;" y="379"><tspan>Size of array (in tens of thousands)</tspan></text><path fill="none" class="highcharts-axis-line" stroke="#ccd6eb" stroke-width="1" d="M 81 340.5 L 447 340.5"></path></g><g class="highcharts-axis highcharts-yaxis "><text x="28.140625" text-anchor="middle" transform="translate(0,0) rotate(270 28.140625 196.5)" class="highcharts-axis-title" style="color:#666666;fill:#666666;" y="196.5"><tspan>Execution Time (ms)</tspan></text><path fill="none" class="highcharts-axis-line" d="M 81 53 L 81 340"></path></g><g class="highcharts-series-group"><g class="highcharts-series highcharts-series-0 highcharts-line-series highcharts-color-0 " transform="translate(81,53) scale(1 1)" clip-path="url(#highcharts-tg9bcdd-12)"><path fill="none" d="M 36.6 275.807 L 109.8 248.542 L 183 203.19600000000003 L 256.2 146.37 L 329.4 66.87100000000001" class="highcharts-graph" stroke="#7cb5ec" stroke-width="2" stroke-linejoin="round" stroke-linecap="round"></path></g><g class="highcharts-markers highcharts-series-0 highcharts-line-series highcharts-color-0 " transform="translate(81,53) scale(1 1)" clip-path="none"><path fill="#7cb5ec" d="M 40 276 A 4 4 0 1 1 39.99999800000017 275.99600000066664 Z" class="highcharts-point highcharts-color-0"></path><path fill="#7cb5ec" d="M 113 249 A 4 4 0 1 1 112.99999800000016 248.99600000066667 Z" class="highcharts-point highcharts-color-0"></path><path fill="#7cb5ec" d="M 187 203 A 4 4 0 1 1 186.99999800000018 202.99600000066667 Z" class="highcharts-point highcharts-color-0"></path><path fill="#7cb5ec" d="M 260 146 A 4 4 0 1 1 259.9999980000002 145.99600000066667 Z" class="highcharts-point highcharts-color-0"></path><path fill="#7cb5ec" d="M 333 67 A 4 4 0 1 1 332.9999980000002 66.99600000066667 Z" class="highcharts-point highcharts-color-0"></path></g></g><text x="280" text-anchor="middle" class="highcharts-title" style="color:#333333;font-size:18px;fill:#333333;" y="24"><tspan>Execution Time to sort an array by selection</tspan></text><g class="highcharts-legend" transform="translate(459,183)"><rect fill="none" class="highcharts-legend-box" rx="0" ry="0" x="0" y="0" width="130" height="29" visibility="visible"></rect><g><g><g class="highcharts-legend-item highcharts-line-series highcharts-color-0 highcharts-series-0" transform="translate(8,3)"><path fill="none" d="M 0 11 L 16 11" class="highcharts-graph" stroke="#7cb5ec" stroke-width="2"></path><path fill="#7cb5ec" d="M 12 11 A 4 4 0 1 1 11.999998000000167 10.996000000666664 Z" class="highcharts-point"></path><text x="21" style="color:#333333;font-size:12px;font-weight:bold;cursor:pointer;fill:#333333;" text-anchor="start" y="15"><tspan>Execution Time</tspan></text></g></g></g></g><g class="highcharts-axis-labels highcharts-xaxis-labels "><text x="117.6" style="color:#666666;cursor:default;font-size:11px;fill:#666666;" text-anchor="middle" transform="translate(0,0)" y="359" opacity="1"><tspan>1</tspan></text><text x="190.8" style="color:#666666;cursor:default;font-size:11px;fill:#666666;" text-anchor="middle" transform="translate(0,0)" y="359" opacity="1"><tspan>2</tspan></text><text x="264" style="color:#666666;cursor:default;font-size:11px;fill:#666666;" text-anchor="middle" transform="translate(0,0)" y="359" opacity="1"><tspan>3</tspan></text><text x="337.2" style="color:#666666;cursor:default;font-size:11px;fill:#666666;" text-anchor="middle" transform="translate(0,0)" y="359" opacity="1"><tspan>4</tspan></text><text x="410.40000000000003" style="color:#666666;cursor:default;font-size:11px;fill:#666666;" text-anchor="middle" transform="translate(0,0)" y="359" opacity="1"><tspan>5</tspan></text></g><g class="highcharts-axis-labels highcharts-yaxis-labels "><text x="66" style="color:#666666;cursor:default;font-size:11px;fill:#666666;" text-anchor="end" transform="translate(0,0)" y="344" opacity="1"><tspan>0</tspan></text><text x="66" style="color:#666666;cursor:default;font-size:11px;fill:#666666;" text-anchor="end" transform="translate(0,0)" y="287" opacity="1"><tspan>200</tspan></text><text x="66" style="color:#666666;cursor:default;font-size:11px;fill:#666666;" text-anchor="end" transform="translate(0,0)" y="229" opacity="1"><tspan>400</tspan></text><text x="66" style="color:#666666;cursor:default;font-size:11px;fill:#666666;" text-anchor="end" transform="translate(0,0)" y="172" opacity="1"><tspan>600</tspan></text><text x="66" style="color:#666666;cursor:default;font-size:11px;fill:#666666;" text-anchor="end" transform="translate(0,0)" y="114" opacity="1"><tspan>800</tspan></text><text x="66" style="color:#666666;cursor:default;font-size:11px;fill:#666666;" text-anchor="end" transform="translate(0,0)" y="57" opacity="1"><tspan>1000</tspan></text></g><text x="590" class="highcharts-credits" text-anchor="end" style="cursor:pointer;color:#999999;font-size:9px;fill:#999999;" y="395">Highcharts.com</text></svg>